<svg width="16" height="16" fill="none" xmlns="http://www.w3.org/2000/svg"><path d="M5.78 9.333H2.667c-.734 0-1.334.6-1.334 1.334v4H5.78V9.333Z" stroke="#173D33" stroke-miterlimit="10" stroke-linecap="round" stroke-linejoin="round"/><path d="M8.887 6.667h-1.78c-.734 0-1.334.6-1.334 1.333v6.667h4.447V8c0-.733-.593-1.333-1.333-1.333ZM13.333 11.333H10.22v3.334h4.447v-2c0-.734-.6-1.334-1.334-1.334Z" stroke="#173D33" stroke-miterlimit="10" stroke-linecap="round" stroke-linejoin="round"/><path d="m8.347 1.38.353.707c.047.1.173.193.28.206l.64.107c.407.067.507.367.213.653l-.5.5a.426.426 0 0 0-.106.36l.14.614c.113.486-.147.673-.574.42l-.6-.354a.412.412 0 0 0-.393 0l-.6.354c-.427.253-.687.066-.573-.42l.14-.614a.42.42 0 0 0-.107-.36l-.493-.493c-.294-.293-.2-.587.213-.653l.64-.107a.444.444 0 0 0 .28-.207l.353-.706c.194-.387.5-.387.694-.007Z" stroke="#173D33" stroke-linecap="round" stroke-linejoin="round"/></svg>