<svg width="16" height="16" fill="none" xmlns="http://www.w3.org/2000/svg"><path d="M6.4 13.333h3.2c2.667 0 3.733-1.066 3.733-3.733V6.4c0-2.667-1.066-3.733-3.733-3.733H6.4c-2.667 0-3.733 1.066-3.733 3.733v3.2c0 2.667 1.066 3.733 3.733 3.733Z" stroke="#173D33" stroke-linecap="round" stroke-linejoin="round"/><path d="M7 11.333h2c1.667 0 2.333-.666 2.333-2.333V7c0-1.667-.666-2.333-2.333-2.333H7c-1.667 0-2.333.666-2.333 2.333v2c0 1.667.666 2.333 2.333 2.333ZM5.34 2.667V1.333M8 2.667V1.333M10.667 2.667V1.333M13.333 5.333h1.334M13.333 8h1.334M13.333 10.667h1.334M10.667 13.333v1.334M8.007 13.333v1.334M5.34 13.333v1.334M1.333 5.333h1.334M1.333 8h1.334M1.333 10.667h1.334" stroke="#173D33" stroke-linecap="round" stroke-linejoin="round"/><path d="M8 6.467 7.373 7.56c-.14.24-.026.44.254.44h.746c.28 0 .394.2.254.44L8 9.533" stroke="#173D33" stroke-linecap="round" stroke-linejoin="round"/></svg>